<svg xmlns="http://www.w3.org/2000/svg" width="739.17" height="896" viewBox="0 0 739.17 896">
    <defs>
        <style>
            .cls-1{fill:#0f0d0d}
        </style>
    </defs>
    <path id="B" d="M257.327-564.112v197.558h220.049q58.963 0 95.739-22.187t36.776-78.719q0-62.611-48.63-82.67-41.943-13.981-106.985-13.981zm0 345.878V20.659h220.049q58.963 0 91.788-15.8 59.571-29.178 59.571-111.848 0-69.905-57.748-96.043-32.217-14.589-90.573-15.2zm256.521-501.493q164.733 2.427 233.422 95.436 41.335 57.14 41.335 136.771 0 82.062-41.335 131.908-23.1 27.962-68.081 51.061 68.689 24.923 103.642 79.023t34.953 131.3q0 79.631-40.119 142.849a247.593 247.593 0 0 1-63.826 70.513q-43.159 32.825-101.818 44.982T484.67 176.273H78.613v-896z" class="cls-1" transform="translate(-78.613 719.727)"/>
</svg>
